<svg xmlns="http://www.w3.org/2000/svg" width="24" height="24" fill="#edf1f7"><desc>Minio Streamline Icon: https://streamlinehq.com</desc><path d="M13.2 0c-.6-.03-1.2.2-1.6.6a2.15 2.15 0 0 0-.1 3.03l3.41 3.55a3.04 3.04 0 0 1-.66 4.7l-.47.23V7.29a15.4 15.4 0 0 0-8.01 10.48v.02l6.54-3.33v7.62L13.78 24V13.68l.9-.46a4.44 4.44 0 0 0 1.22-7.03l-3.37-3.53a.75.75 0 0 1 .03-1.05.75.75 0 0 1 1.06.04l.47.48h-.01l4.07 4.25h.08v-.07L15.1 1.17l-.15.14.15-.14C14.5.39 13.83.05 13.21 0m-.9 9.87v3L8.15 15a14 14 0 0 1 2.77-3.92 14 14 0 0 1 1.38-1.22"/></svg>